<svg xmlns="http://www.w3.org/2000/svg" xmlns:xlink="http://www.w3.org/1999/xlink" width="500" zoomAndPan="magnify" viewBox="0 0 375 374.999991" height="500" preserveAspectRatio="xMidYMid meet" version="1.0"><defs><clipPath id="e014c1a522"><path d="M 264.136719 133.40625 L 286.585938 133.40625 L 286.585938 169.484375 L 264.136719 169.484375 Z M 264.136719 133.40625 " clip-rule="nonzero"/></clipPath><clipPath id="847a5e1356"><path d="M 144 169 L 185 169 L 185 222 L 144 222 Z M 144 169 " clip-rule="nonzero"/></clipPath><clipPath id="0673a7257a"><path d="M 164.652344 169.484375 L 184.8125 211.324219 L 164.589844 221.070312 L 144.425781 179.230469 Z M 164.652344 169.484375 " clip-rule="nonzero"/></clipPath><clipPath id="3634b3fde7"><path d="M 117 157 L 159 157 L 159 209 L 117 209 Z M 117 157 " clip-rule="nonzero"/></clipPath><clipPath id="e595061964"><path d="M 158.4375 167.011719 L 138.101562 208.765625 L 117.917969 198.9375 L 138.253906 157.179688 Z M 158.4375 167.011719 " clip-rule="nonzero"/></clipPath><clipPath id="820cd0fe65"><path d="M 95.46875 221.070312 L 117.917969 221.070312 L 117.917969 233.953125 L 95.46875 233.953125 Z M 95.46875 221.070312 " clip-rule="nonzero"/></clipPath><clipPath id="f477f57006"><path d="M 204 122 L 256 122 L 256 223 L 204 223 Z M 204 122 " clip-rule="nonzero"/></clipPath><clipPath id="21a918c740"><path d="M 182.875 151.75 L 256.386719 121.480469 L 287.511719 197.074219 L 214 227.34375 Z M 182.875 151.75 " clip-rule="nonzero"/></clipPath><clipPath id="01ce8a7e0e"><path d="M 182.875 151.75 L 256.386719 121.480469 L 287.511719 197.074219 L 214 227.34375 Z M 182.875 151.75 " clip-rule="nonzero"/></clipPath></defs><rect x="-37.5" width="450" fill="#ffffff" y="-37.499999" height="449.999989" fill-opacity="1"/><rect x="-37.5" width="450" fill="#000000" y="-37.499999" height="449.999989" fill-opacity="1"/><rect x="-37.5" width="450" fill="#000000" y="-37.499999" height="449.999989" fill-opacity="1"/><rect x="-37.5" width="450" fill="#000000" y="-37.499999" height="449.999989" fill-opacity="1"/><path fill="#ffffff" d="M 55.21875 223.128906 C 46.539062 223.128906 38.375 221.753906 30.71875 219.003906 C 26.25 217.371094 22.398438 215.394531 19.171875 213.082031 C 15.953125 210.761719 12.238281 207.535156 8.03125 203.410156 L 14.09375 197.097656 C 18.21875 201.308594 22.363281 204.65625 26.53125 207.144531 C 30.695312 209.636719 35.164062 211.441406 39.9375 212.566406 C 44.707031 213.683594 50.054688 214.238281 55.984375 214.238281 C 61.316406 214.238281 66.773438 213.660156 72.359375 212.503906 C 77.953125 211.339844 82.765625 209.207031 86.796875 206.113281 C 90.835938 203.019531 92.859375 198.8125 92.859375 193.488281 C 92.859375 189.613281 91.738281 186.347656 89.5 183.691406 C 87.269531 181.027344 84.5 179.003906 81.1875 177.628906 C 77.882812 176.253906 74.554688 175.4375 71.203125 175.175781 C 68.710938 174.917969 62.78125 174.785156 53.40625 174.785156 C 51.519531 174.703125 48.988281 174.660156 45.8125 174.660156 C 40.476562 174.578125 35.488281 173.765625 30.84375 172.222656 C 26.207031 170.671875 22.40625 168.175781 19.4375 164.738281 C 16.476562 161.300781 15 156.875 15 151.457031 C 15 146.894531 16.132812 142.832031 18.40625 139.269531 C 20.6875 135.707031 23.695312 132.746094 27.4375 130.378906 C 31.175781 128.015625 35.28125 126.230469 39.75 125.019531 C 45.25 123.480469 51.304688 122.707031 57.921875 122.707031 C 65.140625 122.707031 71.78125 123.847656 77.84375 126.128906 C 83.90625 128.402344 90.03125 131.859375 96.21875 136.503906 L 90.796875 143.066406 C 86.410156 140.234375 82.5625 138.027344 79.25 136.441406 C 75.945312 134.847656 72.46875 133.605469 68.8125 132.707031 C 65.164062 131.800781 61.019531 131.347656 56.375 131.347656 C 51.5625 131.347656 47.4375 131.777344 44 132.628906 C 40.644531 133.402344 37.441406 134.582031 34.390625 136.175781 C 31.335938 137.769531 28.800781 139.859375 26.78125 142.441406 C 24.769531 145.015625 23.765625 147.972656 23.765625 151.316406 C 23.765625 156.652344 25.929688 160.371094 30.265625 162.472656 C 34.609375 164.578125 39.789062 165.71875 45.8125 165.894531 L 54.953125 166.144531 C 56.421875 166.144531 59.066406 166.191406 62.890625 166.285156 C 66.710938 166.371094 69.742188 166.496094 71.984375 166.660156 C 77.484375 167.097656 82.488281 168.410156 87 170.597656 C 91.507812 172.785156 95.097656 175.816406 97.765625 179.691406 C 100.429688 183.558594 101.765625 188.109375 101.765625 193.347656 C 101.765625 200.660156 99.332031 206.53125 94.46875 210.957031 C 89.613281 215.375 83.660156 218.511719 76.609375 220.363281 C 69.566406 222.207031 62.4375 223.128906 55.21875 223.128906 Z M 55.21875 223.128906 " fill-opacity="1" fill-rule="nonzero"/><path fill="#ffffff" d="M 106.660156 220.941406 L 96.863281 220.941406 L 143.910156 124.769531 L 152.816406 124.769531 L 199.488281 220.941406 L 189.675781 220.941406 L 172.800781 186.644531 L 123.550781 186.644531 Z M 148.425781 135.847656 L 127.925781 177.878906 L 168.800781 177.878906 Z M 148.425781 135.847656 " fill-opacity="1" fill-rule="nonzero"/><path fill="#ffffff" d="M 270.015625 220.941406 L 270.015625 124.769531 L 315.515625 124.769531 C 324.710938 124.769531 332.832031 126.75 339.875 130.707031 C 346.925781 134.65625 352.363281 140.261719 356.1875 147.519531 C 360.019531 154.78125 361.9375 163.183594 361.9375 172.722656 C 361.9375 182.089844 359.867188 190.425781 355.734375 197.738281 C 351.609375 205.042969 346 210.734375 338.90625 214.816406 C 331.820312 218.902344 324.023438 220.941406 315.515625 220.941406 Z M 315.515625 212.175781 C 322.484375 212.175781 328.800781 210.699219 334.46875 207.738281 C 340.144531 204.769531 344.65625 200.34375 348 194.457031 C 351.351562 188.5625 353.03125 181.40625 353.03125 172.988281 C 353.03125 164.5625 351.414062 157.386719 348.1875 151.457031 C 344.96875 145.519531 340.519531 141.050781 334.84375 138.050781 C 329.175781 135.042969 322.734375 133.535156 315.515625 133.535156 L 278.90625 133.535156 L 278.90625 212.175781 Z M 315.515625 212.175781 " fill-opacity="1" fill-rule="nonzero"/><path fill="#ffffff" d="M 67.773438 261.886719 C 64.804688 261.886719 62.03125 261.332031 59.460938 260.230469 C 56.886719 259.117188 54.820312 257.480469 53.257812 255.324219 C 51.703125 253.167969 50.929688 250.585938 50.929688 247.574219 C 50.929688 244.710938 51.652344 242.199219 53.101562 240.042969 C 54.558594 237.886719 56.507812 236.230469 58.945312 235.074219 C 61.382812 233.917969 64.015625 233.339844 66.851562 233.339844 C 69.609375 233.339844 72.148438 233.761719 74.460938 234.605469 C 76.773438 235.449219 78.964844 236.769531 81.039062 238.558594 L 79.023438 241.527344 C 77.117188 239.964844 75.203125 238.800781 73.289062 238.027344 C 71.371094 237.246094 69.257812 236.855469 66.945312 236.855469 C 64.734375 236.855469 62.679688 237.285156 60.773438 238.136719 C 58.875 238.980469 57.351562 240.214844 56.195312 241.839844 C 55.039062 243.457031 54.460938 245.386719 54.460938 247.636719 C 54.460938 249.980469 55.09375 251.960938 56.367188 253.574219 C 57.648438 255.179688 59.308594 256.371094 61.351562 257.152344 C 63.390625 257.925781 65.570312 258.308594 67.882812 258.308594 C 70.164062 258.308594 72.1875 258.019531 73.960938 257.433594 C 75.742188 256.839844 77.585938 255.871094 79.492188 254.527344 L 80.882812 257.730469 C 79.089844 259.148438 77.058594 260.195312 74.789062 260.871094 C 72.527344 261.546875 70.1875 261.886719 67.773438 261.886719 Z M 67.773438 261.886719 " fill-opacity="1" fill-rule="nonzero"/><path fill="#ffffff" d="M 125.953125 261.933594 C 123.054688 261.933594 120.351562 261.355469 117.84375 260.199219 C 115.34375 259.042969 113.34375 257.363281 111.84375 255.152344 C 110.34375 252.933594 109.59375 250.363281 109.59375 247.433594 C 109.59375 244.601562 110.359375 242.113281 111.890625 239.964844 C 113.429688 237.820312 115.441406 236.167969 117.921875 235.011719 C 120.410156 233.855469 123.039062 233.277344 125.8125 233.277344 C 128.675781 233.277344 131.382812 233.878906 133.9375 235.074219 C 136.488281 236.261719 138.539062 237.957031 140.09375 240.152344 C 141.65625 242.339844 142.4375 244.902344 142.4375 247.839844 C 142.4375 250.777344 141.664062 253.308594 140.125 255.433594 C 138.59375 257.558594 136.566406 259.175781 134.046875 260.277344 C 131.523438 261.378906 128.828125 261.933594 125.953125 261.933594 Z M 126.0625 258.417969 C 128.269531 258.417969 130.359375 258.023438 132.328125 257.230469 C 134.296875 256.429688 135.882812 255.226562 137.09375 253.621094 C 138.300781 252.019531 138.90625 250.089844 138.90625 247.839844 C 138.90625 245.558594 138.285156 243.585938 137.046875 241.917969 C 135.804688 240.242188 134.179688 238.980469 132.171875 238.136719 C 130.171875 237.285156 128.050781 236.855469 125.8125 236.855469 C 123.664062 236.855469 121.613281 237.273438 119.65625 238.105469 C 117.707031 238.929688 116.117188 240.152344 114.890625 241.777344 C 113.671875 243.402344 113.0625 245.304688 113.0625 247.480469 C 113.0625 249.792969 113.671875 251.773438 114.890625 253.417969 C 116.117188 255.054688 117.71875 256.300781 119.6875 257.152344 C 121.65625 257.996094 123.78125 258.417969 126.0625 258.417969 Z M 126.0625 258.417969 " fill-opacity="1" fill-rule="nonzero"/><path fill="#ffffff" d="M 171.652344 260.949219 L 167.980469 260.949219 L 183.214844 234.214844 L 186.371094 234.214844 L 201.339844 260.949219 L 197.667969 260.949219 L 193.933594 254.261719 L 175.433594 254.261719 Z M 184.761719 237.886719 L 177.449219 250.746094 L 191.964844 250.746094 Z M 184.761719 237.886719 " fill-opacity="1" fill-rule="nonzero"/><path fill="#ffffff" d="M 243.875 261.886719 C 240.90625 261.886719 238.132812 261.332031 235.5625 260.230469 C 232.988281 259.117188 230.921875 257.480469 229.359375 255.324219 C 227.804688 253.167969 227.03125 250.585938 227.03125 247.574219 C 227.03125 244.710938 227.753906 242.199219 229.203125 240.042969 C 230.660156 237.886719 232.609375 236.230469 235.046875 235.074219 C 237.484375 233.917969 240.117188 233.339844 242.953125 233.339844 C 245.710938 233.339844 248.25 233.761719 250.5625 234.605469 C 252.875 235.449219 255.066406 236.769531 257.140625 238.558594 L 255.125 241.527344 C 253.21875 239.964844 251.304688 238.800781 249.390625 238.027344 C 247.472656 237.246094 245.359375 236.855469 243.046875 236.855469 C 240.835938 236.855469 238.78125 237.285156 236.875 238.136719 C 234.976562 238.980469 233.453125 240.214844 232.296875 241.839844 C 231.140625 243.457031 230.5625 245.386719 230.5625 247.636719 C 230.5625 249.980469 231.195312 251.960938 232.46875 253.574219 C 233.75 255.179688 235.410156 256.371094 237.453125 257.152344 C 239.492188 257.925781 241.671875 258.308594 243.984375 258.308594 C 246.265625 258.308594 248.289062 258.019531 250.0625 257.433594 C 251.84375 256.839844 253.6875 255.871094 255.59375 254.527344 L 256.984375 257.730469 C 255.191406 259.148438 253.160156 260.195312 250.890625 260.871094 C 248.628906 261.546875 246.289062 261.886719 243.875 261.886719 Z M 243.875 261.886719 " fill-opacity="1" fill-rule="nonzero"/><path fill="#ffffff" d="M 292.378906 260.949219 L 288.894531 260.949219 L 288.894531 234.214844 L 292.378906 234.214844 L 292.378906 245.402344 L 310.863281 245.402344 L 310.863281 234.214844 L 314.394531 234.214844 L 314.394531 260.949219 L 310.863281 260.949219 L 310.863281 248.933594 L 292.378906 248.933594 Z M 292.378906 260.949219 " fill-opacity="1" fill-rule="nonzero"/><g clip-path="url(#e014c1a522)"><path fill="#000000" d="M 264.136719 133.40625 L 286.585938 133.40625 L 286.585938 169.449219 L 264.136719 169.449219 Z M 264.136719 133.40625 " fill-opacity="1" fill-rule="nonzero"/></g><g clip-path="url(#847a5e1356)"><g clip-path="url(#0673a7257a)"><path fill="#000000" d="M 164.652344 169.484375 L 184.828125 211.355469 L 164.605469 221.101562 L 144.425781 179.230469 Z M 164.652344 169.484375 " fill-opacity="1" fill-rule="nonzero"/></g></g><g clip-path="url(#3634b3fde7)"><g clip-path="url(#e595061964)"><path fill="#000000" d="M 158.4375 167.011719 L 138.085938 208.796875 L 117.902344 198.96875 L 138.253906 157.179688 Z M 158.4375 167.011719 " fill-opacity="1" fill-rule="nonzero"/></g></g><g clip-path="url(#820cd0fe65)"><path fill="#000000" d="M 95.472656 221.070312 L 117.917969 221.070312 L 117.917969 233.953125 L 95.472656 233.953125 Z M 95.472656 221.070312 " fill-opacity="1" fill-rule="nonzero"/></g><g clip-path="url(#f477f57006)"><g clip-path="url(#21a918c740)"><g clip-path="url(#01ce8a7e0e)"><path fill="#e79c00" d="M 225.332031 222.03125 C 223.589844 222.472656 222.023438 222.730469 221.847656 222.605469 C 221.671875 222.480469 220.871094 221.90625 220.0625 221.328125 C 217.792969 219.703125 215.867188 217.738281 212.269531 213.371094 C 205.859375 205.589844 204.375 203.492188 204.164062 201.9375 C 203.835938 199.539062 207.488281 194.457031 210.507812 193.105469 C 212.945312 192.011719 213.320312 192.105469 215.976562 194.480469 C 217.542969 195.878906 219.933594 198.152344 221.285156 199.53125 C 222.636719 200.90625 224.175781 201.855469 224.703125 201.636719 C 225.234375 201.417969 226.214844 198.128906 226.878906 194.332031 C 227.546875 190.53125 228.253906 186.960938 228.453125 186.394531 C 228.648438 185.832031 228.902344 184.425781 229.011719 183.269531 C 229.484375 178.324219 237.050781 147.308594 239.765625 139.199219 C 240.382812 137.351562 240.792969 135.605469 240.675781 135.320312 C 240.558594 135.03125 241.6875 133.023438 243.183594 130.863281 C 245.230469 127.90625 246.917969 126.394531 249.988281 124.777344 C 255.660156 121.789062 256.4375 122.09375 255.535156 126.964844 C 255.128906 129.152344 254.457031 131.828125 254.039062 132.910156 C 253.621094 133.988281 252.546875 137.597656 251.652344 140.921875 C 250.753906 144.246094 249.804688 147.429688 249.539062 147.992188 C 249.273438 148.558594 248.765625 150.441406 248.40625 152.179688 C 248.050781 153.917969 247.652344 155.574219 247.519531 155.855469 C 246.363281 158.300781 237.898438 194.085938 237.546875 198.003906 C 237.441406 199.183594 237.226562 200.386719 237.074219 200.675781 C 236.921875 200.96875 236.09375 204.738281 235.238281 209.054688 C 234.382812 213.371094 233.425781 217.257812 233.113281 217.6875 C 231.96875 219.269531 228.421875 221.25 225.332031 222.035156 Z M 225.332031 222.03125 " fill-opacity="1" fill-rule="nonzero"/></g></g></g></svg>
